<svg xmlns="http://www.w3.org/2000/svg" xmlns:xlink="http://www.w3.org/1999/xlink" width="34" height="34" viewBox="0 0 34 34"><defs><clipPath id="a"><rect width="34" height="34" transform="translate(999 1726)" fill="#fff" stroke="#707070" stroke-width="1"/></clipPath></defs><g transform="translate(-999 -1726)" clip-path="url(#a)"><path d="M-3911.565,2209.435a15.894,15.894,0,0,1-11.314-4.687,15.9,15.9,0,0,1-4.686-11.314,15.9,15.9,0,0,1,4.686-11.314,15.9,15.9,0,0,1,11.314-4.686,15.9,15.9,0,0,1,11.314,4.686,15.9,15.9,0,0,1,4.686,11.314,15.9,15.9,0,0,1-4.686,11.314A15.894,15.894,0,0,1-3911.565,2209.435Zm-2.9-22.332a1.6,1.6,0,0,0-1.6,1.6v9.46a1.6,1.6,0,0,0,1.6,1.6,1.576,1.576,0,0,0,.8-.216l8.2-4.729a1.584,1.584,0,0,0,.8-1.386,1.584,1.584,0,0,0-.8-1.386l-8.2-4.729A1.575,1.575,0,0,0-3914.463,2187.1Z" transform="translate(4927.565 -450.434)" fill="#fff" opacity="0.9"/></g></svg>